<?xml version="1.0" encoding="UTF-8"?>
<svg width="364.47mm" height="250.77mm" version="1.1" viewBox="0 0 1291.4286 888.57146" xmlns="http://www.w3.org/2000/svg">
 <g transform="translate(291.43 -77.505)">
  <rect x="-291.43" y="77.505" width="1291.4" height="888.57" ry="0" color="#000000" color-rendering="auto" fill="#ffab91" image-rendering="auto" shape-rendering="auto" solid-color="#000000" style="isolation:auto;mix-blend-mode:normal"/>
  <path d="m-291.43 77.506v539.65l633.57-539.65h-633.57z" fill="#ffccbc" fill-rule="evenodd"/>
  <path d="m875.79 77.506-1015.2 888.57h1139.4v-888.57h-124.21z" fill="#ff8a65" fill-rule="evenodd"/>
  <path d="m1e3 579.85-426.49 386.23h426.49v-386.23z" fill="#ff7043" fill-rule="evenodd"/>
  <rect x="-291.43" y="146.65" width="1291.4" height="760" ry="0" color="#000000" color-rendering="auto" fill="#fff" image-rendering="auto" shape-rendering="auto" solid-color="#000000" style="isolation:auto;mix-blend-mode:normal"/>
  <rect transform="matrix(.9547 -.29759 .29759 .9547 0 0)" x="-127.48" y="262.04" width="281.94" height="182.05" ry="13.055" color="#000000" color-rendering="auto" fill="#ffe082" image-rendering="auto" shape-rendering="auto" solid-color="#000000" style="isolation:auto;mix-blend-mode:normal"/>
  <g transform="matrix(.70834 -.22079 .24155 .77491 -261 -13.585)" fill="#ffca28" shape-rendering="auto">
   <rect transform="matrix(.88549 .46465 -.41319 .91065 0 0)" x="346.52" y="312.79" width="209.61" height="20.914" ry="10.457" color="#000000" color-rendering="auto" image-rendering="auto" solid-color="#000000" style="isolation:auto;mix-blend-mode:normal"/>
   <rect transform="matrix(-.88549 .46465 .41319 .91065 0 0)" x="-292.38" y="638.68" width="209.61" height="20.914" ry="10.457" color="#000000" color-rendering="auto" image-rendering="auto" solid-color="#000000" style="isolation:auto;mix-blend-mode:normal"/>
  </g>
  <rect transform="matrix(.98802 .15434 -.15434 .98802 0 0)" x="308.92" y="164.52" width="281.94" height="182.05" ry="13.055" color="#000000" color-rendering="auto" fill="#e6ee9c" image-rendering="auto" shape-rendering="auto" solid-color="#000000" style="isolation:auto;mix-blend-mode:normal"/>
  <g transform="matrix(.73306 .11451 -.12528 .80196 218.02 -156.39)" fill="#d4e157" shape-rendering="auto">
   <rect transform="matrix(.88549 .46465 -.41319 .91065 0 0)" x="346.52" y="312.79" width="209.61" height="20.914" ry="10.457" color="#000000" color-rendering="auto" image-rendering="auto" solid-color="#000000" style="isolation:auto;mix-blend-mode:normal"/>
   <rect transform="matrix(-.88549 .46465 .41319 .91065 0 0)" x="-292.38" y="638.68" width="209.61" height="20.914" ry="10.457" color="#000000" color-rendering="auto" image-rendering="auto" solid-color="#000000" style="isolation:auto;mix-blend-mode:normal"/>
  </g>
  <rect transform="matrix(.9547 -.29759 .29759 .9547 0 0)" x="376.81" y="428.31" width="281.94" height="182.05" ry="13.055" color="#000000" color-rendering="auto" fill="#ffab91" image-rendering="auto" shape-rendering="auto" solid-color="#000000" style="isolation:auto;mix-blend-mode:normal"/>
  <g transform="matrix(.70834 -.22079 .24155 .77491 269.92 -4.9216)" fill="#ff7043" shape-rendering="auto">
   <rect transform="matrix(.88549 .46465 -.41319 .91065 0 0)" x="346.52" y="312.79" width="209.61" height="20.914" ry="10.457" color="#000000" color-rendering="auto" image-rendering="auto" solid-color="#000000" style="isolation:auto;mix-blend-mode:normal"/>
   <rect transform="matrix(-.88549 .46465 .41319 .91065 0 0)" x="-292.38" y="638.68" width="209.61" height="20.914" ry="10.457" color="#000000" color-rendering="auto" image-rendering="auto" solid-color="#000000" style="isolation:auto;mix-blend-mode:normal"/>
  </g>
  <rect transform="matrix(.97596 .21793 -.21793 .97596 0 0)" x="27.278" y="359.76" width="281.94" height="182.05" ry="13.055" color="#000000" color-rendering="auto" fill="#80cbc4" image-rendering="auto" shape-rendering="auto" solid-color="#000000" style="isolation:auto;mix-blend-mode:normal"/>
  <g transform="matrix(.72412 .16169 -.17689 .79217 -89.745 -12.786)" fill="#26a69a" shape-rendering="auto">
   <rect transform="matrix(.88549 .46465 -.41319 .91065 0 0)" x="346.52" y="312.79" width="209.61" height="20.914" ry="10.457" color="#000000" color-rendering="auto" image-rendering="auto" solid-color="#000000" style="isolation:auto;mix-blend-mode:normal"/>
   <rect transform="matrix(-.88549 .46465 .41319 .91065 0 0)" x="-292.38" y="638.68" width="209.61" height="20.914" ry="10.457" color="#000000" color-rendering="auto" image-rendering="auto" solid-color="#000000" style="isolation:auto;mix-blend-mode:normal"/>
  </g>
  <rect transform="matrix(.9547 -.29759 .29759 .9547 0 0)" x="35.437" y="645.98" width="281.94" height="182.05" ry="13.055" color="#000000" color-rendering="auto" fill="#607d8b" image-rendering="auto" shape-rendering="auto" solid-color="#000000" style="isolation:auto;mix-blend-mode:normal"/>
  <g transform="matrix(.70834 -.22079 .24155 .77491 8.7902 304.47)" fill="#607d8b" shape-rendering="auto">
   <rect transform="matrix(.88549 .46465 -.41319 .91065 0 0)" x="346.52" y="312.79" width="209.61" height="20.914" ry="10.457" color="#000000" color-rendering="auto" image-rendering="auto" solid-color="#000000" style="isolation:auto;mix-blend-mode:normal"/>
   <rect transform="matrix(-.88549 .46465 .41319 .91065 0 0)" x="-292.38" y="638.68" width="209.61" height="20.914" ry="10.457" color="#000000" color-rendering="auto" image-rendering="auto" solid-color="#000000" style="isolation:auto;mix-blend-mode:normal"/>
  </g>
  <rect transform="matrix(.99439 .10578 -.10578 .99439 0 0)" x="289.61" y="618.77" width="281.94" height="182.05" ry="13.055" color="#000000" color-rendering="auto" fill="#c5e1a5" image-rendering="auto" shape-rendering="auto" solid-color="#000000" style="isolation:auto;mix-blend-mode:normal"/>
  <g transform="matrix(.73779 .078482 -.085858 .80713 142.85 282.79)" fill="#9ccc65" shape-rendering="auto">
   <rect transform="matrix(.88549 .46465 -.41319 .91065 0 0)" x="346.52" y="312.79" width="209.61" height="20.914" ry="10.457" color="#000000" color-rendering="auto" image-rendering="auto" solid-color="#000000" style="isolation:auto;mix-blend-mode:normal"/>
   <rect transform="matrix(-.88549 .46465 .41319 .91065 0 0)" x="-292.38" y="638.68" width="209.61" height="20.914" ry="10.457" color="#000000" color-rendering="auto" image-rendering="auto" solid-color="#000000" style="isolation:auto;mix-blend-mode:normal"/>
  </g>
  <rect transform="matrix(.9547 -.29759 .29759 .9547 0 0)" x="-124.76" y="561.04" width="281.94" height="182.05" ry="13.055" color="#000000" color-rendering="auto" fill="#ffcc80" image-rendering="auto" shape-rendering="auto" solid-color="#000000" style="isolation:auto;mix-blend-mode:normal"/>
  <g transform="matrix(.70834 -.22079 .24155 .77491 -169.42 271.06)" fill="#ffa726" shape-rendering="auto">
   <rect transform="matrix(.88549 .46465 -.41319 .91065 0 0)" x="346.52" y="312.79" width="209.61" height="20.914" ry="10.457" color="#000000" color-rendering="auto" image-rendering="auto" solid-color="#000000" style="isolation:auto;mix-blend-mode:normal"/>
   <rect transform="matrix(-.88549 .46465 .41319 .91065 0 0)" x="-292.38" y="638.68" width="209.61" height="20.914" ry="10.457" color="#000000" color-rendering="auto" image-rendering="auto" solid-color="#000000" style="isolation:auto;mix-blend-mode:normal"/>
  </g>
  <rect transform="matrix(.94146 .33713 -.33713 .94146 0 0)" x="531.14" y="173.24" width="281.94" height="182.05" ry="13.055" color="#000000" color-rendering="auto" fill="#90caf9" image-rendering="auto" shape-rendering="auto" solid-color="#000000" style="isolation:auto;mix-blend-mode:normal"/>
  <g transform="matrix(.69852 .25013 -.27364 .76417 449.78 -29.541)" fill="#42a5f5" shape-rendering="auto">
   <rect transform="matrix(.88549 .46465 -.41319 .91065 0 0)" x="346.52" y="312.79" width="209.61" height="20.914" ry="10.457" color="#000000" color-rendering="auto" image-rendering="auto" solid-color="#000000" style="isolation:auto;mix-blend-mode:normal"/>
   <rect transform="matrix(-.88549 .46465 .41319 .91065 0 0)" x="-292.38" y="638.68" width="209.61" height="20.914" ry="10.457" color="#000000" color-rendering="auto" image-rendering="auto" solid-color="#000000" style="isolation:auto;mix-blend-mode:normal"/>
  </g>
  <rect transform="matrix(.93728 .34857 -.34857 .93728 0 0)" x="586.34" y="312.05" width="281.94" height="182.05" ry="13.055" color="#000000" color-rendering="auto" fill="#fff59d" image-rendering="auto" shape-rendering="auto" solid-color="#000000" style="isolation:auto;mix-blend-mode:normal"/>
  <g transform="matrix(.69542 .25862 -.28293 .76078 453.45 125.29)" fill="#ffee58" shape-rendering="auto">
   <rect transform="matrix(.88549 .46465 -.41319 .91065 0 0)" x="346.52" y="312.79" width="209.61" height="20.914" ry="10.457" color="#000000" color-rendering="auto" image-rendering="auto" solid-color="#000000" style="isolation:auto;mix-blend-mode:normal"/>
   <rect transform="matrix(-.88549 .46465 .41319 .91065 0 0)" x="-292.38" y="638.68" width="209.61" height="20.914" ry="10.457" color="#000000" color-rendering="auto" image-rendering="auto" solid-color="#000000" style="isolation:auto;mix-blend-mode:normal"/>
  </g>
  <rect transform="matrix(.9547 -.29759 .29759 .9547 0 0)" x="-10.96" y="395.59" width="281.94" height="182.05" ry="13.055" color="#000000" color-rendering="auto" fill="#f48fb1" image-rendering="auto" shape-rendering="auto" solid-color="#000000" style="isolation:auto;mix-blend-mode:normal"/>
  <g transform="matrix(.70834 -.22079 .24155 .77491 -110.02 79.234)" fill="#ec407a" shape-rendering="auto">
   <rect transform="matrix(.88549 .46465 -.41319 .91065 0 0)" x="346.52" y="312.79" width="209.61" height="20.914" ry="10.457" color="#000000" color-rendering="auto" image-rendering="auto" solid-color="#000000" style="isolation:auto;mix-blend-mode:normal"/>
   <rect transform="matrix(-.88549 .46465 .41319 .91065 0 0)" x="-292.38" y="638.68" width="209.61" height="20.914" ry="10.457" color="#000000" color-rendering="auto" image-rendering="auto" solid-color="#000000" style="isolation:auto;mix-blend-mode:normal"/>
  </g>
  <rect x="226.96" y="441.28" width="281.94" height="182.05" ry="13.055" color="#000000" color-rendering="auto" fill="#b3e5fc" image-rendering="auto" shape-rendering="auto" solid-color="#000000" style="isolation:auto;mix-blend-mode:normal"/>
  <g transform="matrix(.74195 0 0 .81168 109.31 88.602)" fill="#29b6f6" shape-rendering="auto">
   <rect transform="matrix(.88549 .46465 -.41319 .91065 0 0)" x="346.52" y="312.79" width="209.61" height="20.914" ry="10.457" color="#000000" color-rendering="auto" image-rendering="auto" solid-color="#000000" style="isolation:auto;mix-blend-mode:normal"/>
   <rect transform="matrix(-.88549 .46465 .41319 .91065 0 0)" x="-292.38" y="638.68" width="209.61" height="20.914" ry="10.457" color="#000000" color-rendering="auto" image-rendering="auto" solid-color="#000000" style="isolation:auto;mix-blend-mode:normal"/>
  </g>
 </g>
</svg>
