<?xml version="1.0" encoding="UTF-8"?>
<svg viewBox="0 0 111.65 118.86" xmlns="http://www.w3.org/2000/svg">
 <path d="m41.574 28.749c10.61-2.7599-5.7554-28.757 14.857-28.745 20.612 0.01151 5.8026 26.236 14.799 29.048-8.5574 4.4779-23.412 3.5219-29.656-0.30282z"/>
 <path d="m56.599 1.3008c-4.1473 0.06344-8.4303 1.8748-9.4375 5.3438-1.5743 6.7228 1.2129 14.688 4.625 19.531 0.1186 6.9046-6.4677 9.816-10.625 11.469-6.1533 2.84-7.4327 5.8426-7.5 12.812-0.0415 4.3043-2.5922 11.726-3.5242 15.381-1.8065 7.0834-4.0788 6.838-7.3724 12.808-4.8071 8.7141-6.4347 16.263-12.447 22.966-1.1941-0.589-1.9349-0.010002-2.9063 0.719-1.5046 1.082-2.6476 2.304-3.9524 3.609-0.38599 0.33-0.87559 0.458-1.3601 0.454 0.11798 0.55801 0.25725 0.762 0.625 0.625 1.1167-0.439 2.429-1.791 2.8125-1.563-0.17366 2.55-3.6571 6.122-5.1572 9.096-0.70812 1.417-0.32293 1.631 0.31652 1.307-0.80217 1.296-0.15092 1.641 0.63872 0.391-0.0201 0.74 0.21048 0.819 0.76451 0.144 1.404-1.883 2.8685-3.874 4.375-5.625-1.2344 2.181-3.6743 5.323-3.125 5.625 0.88342 0.135 1.8823-2.082 2.5062-2.967 1.9137-2.9 3.6614-4.604 5.3062-7.346l0.9375-2.5c6.5022-6.7347 13.366-13.966 17.812-21.25 3.5836-5.8702 4.6702-8.8401 6.1703-14.579 1.4505-5.5497 3.7851-15.108 6.6422-20.108 7.5407 3.0089 18.368 3.1865 25.625-1.875 3.8091 4.8963 6.0821 15.934 7.6035 22.207 1.2858 5.3015 3.1594 8.6553 5.7846 13.407 5.2931 9.5812 11.277 15.3 17.862 21.886 0.2454 1.474 1.0386 2.98 1.6726 4.085 2.372 3.127 3.583 4.744 5.932 7.946 0.384 0.565 0.659 0.724 1.145 1.209 0.742-0.833-2.32-4.077-3.125-5.74 1.671 1.854 3.123 3.59 4.688 5.625 0.416 0.524 1.094 0.232 0.73299-0.506 0.705 1.168 1.035-0.044998 0.48-0.905 0.532 0.417 0.67 0.039001 0.349-0.777-0.687-1.352-1.377-2.616-2.187-3.75-1.124-1.645-3.725-4.511-3.125-5 0.423-0.385 1.445 0.755 2.187 1.25 0.863 0.536 1.415 0.26 1.563-0.312-0.429-0.018997-0.951-0.162-1.482-0.631-1.286-1.335-2.52-2.122-3.831-3.432-1.045-0.845-1.762-1.017-2.968-0.781-6.3029-6.3244-8.7865-16.797-12.866-23.465-3.3759-5.5182-4.3728-5.3302-6.5737-11.366-1.3867-3.8028-3.7109-12.144-3.8185-16.264-0.1973-7.5506-1.9837-10.992-8.6414-13.12-6.173-1.8559-8.6641-5.2668-9.5074-11.067 4.7297-5.2584 5.9657-13.755 5-19.875-0.4671-3.4739-4.4776-5.1572-8.625-5.0938z" fill="#b5855c"/>
 <path d="m41.185 36.515c-0.8891 0.089199-1.6574 0.5563-2.254 1.1755 2.9296 5.3973 4.0557 8.6971 4.3021 12.415-1.575 5.3166-2.4165 13.094 2.366 13.207 0.4014 10.57 0.1387 18.611-5.4373 29.207-10.051 2.6933-19.616 6.9567-28.748 11.906-0.5117 1.68-3.1895 4.541-5.5641 7.999 4.6499 10.519 37.813-1.244 51.852-3.632 12.705 1.026 47.658 18.012 49.485 5.462-2.122-2.765-4.055-5.526-5.92-7.958-9.0641-6.297-19.412-10.27-29.729-13.996-5.3277-10.995-9.646-15.271-6.6716-29.109 5.7183-0.5472 4.1317-8.3149 2.829-13.192-0.051796-4.2841 1.4869-7.6092 3.9678-12.953-0.5548-0.4584-1.2263-0.8082-2.1406-0.7773-1.3149 6.5745-8.7997 9.6356-14.891 9.5941-6.0911-0.041401-10.32-3.0474-13.446-9.3481z" fill="#fd5"/>
 <g fill="#b2825b">
  <path d="m66.468 103.82c2.4768-1.7661 4.9989-3.9762 7.8118-4.0622 1.1457 0.10416 2.2915 0.20831 3.4372 0.31248 1.4396-0.090904 2.6734-0.53591 3.7497-0.77712 1.3097-0.15531 2.4219 0.50484 2.4998 1.7146-2.7398 0.64807-4.5658 1.2196-7.1869 1.8748-0.87222 0.25784-1.5331 0.67742-2.1873 1.2499-2.9569 0.029198-5.0652-0.038506-8.1243-0.31248z"/>
  <path d="m41.819 97.728c-1.5315-1.0246-6.0152 2.5992-9.4104 3.2783-1.1382 0.17975-2.1962-0.64833-3.4372-0.62496-1.5539 0.065002-2.827 0.94852-4.0621 1.8749-1.702-0.19792-3.3958 0.24054-3.4372 1.5624 0.73053 0.79711 2.1867 0.20596 4.0314 0.34869 4.3568 0.24374 7.6576 1.5533 11.531 2.0842 3.8732 0.53091 8.1437-0.0513 12.248 1.3168h0.31247c0.61105-1.64 0.77842-2.8394 0.62495-4.6872-8.0744-0.92473-5.8673-2.7101-8.4005-5.1531z"/>
 </g>
 <g fill="#fc0">
  <path d="m49.558 107.54c4.5599 0.068703 9.1972 0.025803 13.636 0.94884 6.595 1.5252 11.56 2.7747 17.809 4.5422 4.2806 1.1544 6.7249 1.804 9.8713 2.7863 4.3165 1.3317 5.8035 1.552 10.257 1.6189 1.9077 0.043098 3.0167-0.20946 4.5156-0.17244-1.2939 0.8847-3.0492 1.3263-4.6057 1.5376-3.5187 0.20787-7.4439-0.60783-10.877-1.2929-2.3301-0.34368-5.9383-1.5636-9.5405-2.6334-5.3443-1.5898-12.14-3.7376-18.995-5.4645-4.3225-0.92298-10.347-1.5346-12.072-1.8706z"/>
  <path d="m50.218 102.9c4.9352 0.725 8.7419 1.23 13.438 1.23 1.2928 0.005005 1.9475-0.218 2.8122-0.313 1.0411-0.104 1.8192-0.344 3.1247-0.312 4.8644 0.078003 8.3532 0.301 13.124 0.937 5.3515 0.84 9.8283 1.401 14.999 3.125-4.878-0.849-9.7813-1.519-14.686-2.187-4.5895-0.646-9.4311-0.224-13.436-0.313-2.5663-0.101-4.8649-0.182-7.8118-0.312-3.8961-0.223-7.953-0.742-11.563-1.855z"/>
  <path d="m17.449 114.96c3.4977-0.066795 7.6891-0.70481 11.167-1.1062 4.2812-0.54366 9.0049-1.6002 13.5-2.3979 5.7944-1.0108 9.1816-1.5968 13.772-2.3952-4.2704 1.0605-9.3724 2.2533-13.643 3.2949-4.5013 0.99358-7.4593 1.7541-13.505 2.981-3.5789 0.67291-7.6043 1.2818-11.331 1.2904-3.6846-0.010399-9.5614-0.0457-11.399-3.9853 3.4098 2.5764 7.5491 2.2966 11.438 2.3183z"/>
 </g>
 <path d="m59.334 13.875c-3.1848 1.8618-1.7512 4.5532-1.3563 7.7332 0.005001-4.8514-0.44028-5.071 1.3563-7.7332z" fill="#cd986b"/>
 <path d="m54.31 23.462c0.8128-0.1641 1.2897-0.5561 2.0521-0.0427 1.1505-0.5334 1.3016-0.089699 2.3723 0.1712-2.1524 1.3021-2.5946 1.4524-4.4244-0.1285z" fill="#c44b38"/>
 <path d="m48.226 18.247c-1.4769-8.2179 0.74983-11.001 8.1958-10.85 7.4459 0.15043 9.3411 7.0158 7.7864 10.728 5.4121-6.7913 3.3426-18.043-7.87-18.124-11.213-0.08063-11.551 10.873-8.1122 18.247z"/>
 <path d="m49.663 14.706c1.5794 1.0097 2.5588 1.1794 4.7625 1.043-2.2766 1.0024-3.9244 0.56709-4.7625-1.043z"/>
 <g fill="#cd986b">
  <path d="m55.923 21.295a0.33104 0.18711 0 1 1 -0.66207 0 0.33104 0.18711 0 1 1 0.66207 0z"/>
  <path d="m57.448 21.295a0.33104 0.18711 0 1 1 -0.66207 0 0.33104 0.18711 0 1 1 0.66207 0z"/>
 </g>
 <path d="m63.188 14.706c-1.5794 1.0097-2.5588 1.1794-4.7625 1.043 2.2766 1.0024 3.9244 0.56709 4.7625-1.043z"/>
 <path d="m52.139 25.407c2.2981 3.4182 3.2836 3.2723 4.0729 3.3002 0.78929 0.027948 2.742-0.30053 3.5782-3.2297-3.1275 2.6569-5.4254 1.4146-7.6512-0.07053z" fill="#cd986b"/>
 <g fill="#fc0">
  <path d="m45.506 63.31c2.143 0.79098 3.8483 0.35646 4.9931-1.6477-1.5696 1.0228-3.2238 1.6229-4.9931 1.6477z"/>
  <path d="m64.854 63.235c-2.4815 0.80117-3.9337-0.036968-4.6186-2.0971 1.1776 0.99708 2.338 2.0083 4.6186 2.0971z"/>
  <path d="m40.25 92.568c1.7021 0.42865 3.0548 1.4164 4.2645 2.6329-0.75117-1.7994-1.9386-2.9989-4.2645-2.6329z"/>
  <path d="m71.548 92.345c-1.7388-0.061104-3.0323 0.90214-3.7825 3.115 1.2276-1.3749 2.4581-2.6181 3.7825-3.115z"/>
 </g>
</svg>
